<?xml version="1.0" encoding="UTF-8" standalone="no"?>
<svg
   xmlns:dc="http://purl.org/dc/elements/1.1/"
   xmlns:cc="http://creativecommons.org/ns#"
   xmlns:rdf="http://www.w3.org/1999/02/22-rdf-syntax-ns#"
   xmlns:svg="http://www.w3.org/2000/svg"
   xmlns="http://www.w3.org/2000/svg"
   xmlns:sodipodi="http://sodipodi.sourceforge.net/DTD/sodipodi-0.dtd"
   xmlns:inkscape="http://www.inkscape.org/namespaces/inkscape"
   inkscape:version="1.0 (4035a4fb49, 2020-05-01)"
   height="4.3499999in"
   width="10.772917in"
   sodipodi:docname="microservices-architecture-introduction-microservices-application.svg"
   xml:space="preserve"
   viewBox="0 0 1034.2 417.59999"
   y="0px"
   x="0px"
   id="Layer_2_1_"
   version="1.1"><metadata
   id="metadata299"><rdf:RDF><cc:Work
       rdf:about=""><dc:format>image/svg+xml</dc:format><dc:type
         rdf:resource="http://purl.org/dc/dcmitype/StillImage" /><dc:title></dc:title></cc:Work></rdf:RDF></metadata><defs
   id="defs297" /><sodipodi:namedview
   inkscape:current-layer="Layer_2_1_"
   inkscape:window-maximized="1"
   inkscape:window-y="665"
   inkscape:window-x="3832"
   inkscape:cy="183.55"
   inkscape:cx="516.75001"
   inkscape:zoom="0.97409228"
   fit-margin-bottom="0.25"
   fit-margin-right="0.25"
   fit-margin-left="0.25"
   fit-margin-top="0.25"
   lock-margins="true"
   units="in"
   showgrid="false"
   id="namedview295"
   inkscape:window-height="1017"
   inkscape:window-width="1920"
   inkscape:pageshadow="2"
   inkscape:pageopacity="0"
   guidetolerance="10"
   gridtolerance="10"
   objecttolerance="10"
   borderopacity="1"
   bordercolor="#666666"
   pagecolor="#ffffff" />
<style
   id="style2"
   type="text/css">
	.st0{fill:none;stroke:#202124;stroke-miterlimit:10;}
	.st1{fill:#EFF1F2;stroke:#202124;stroke-miterlimit:10;}
	.st2{fill:#202124;}
	.st3{font-family:'GoogleSans-Bold';}
	.st4{font-size:20px;}
	.st5{fill:none;stroke:#4285F4;stroke-miterlimit:10;}
	.st6{fill:#4285F4;}
	.st7{fill:#FFFFFF;stroke:#202124;stroke-miterlimit:10;}
	.st8{fill:none;}
	.st9{font-family:'GoogleSans-Medium';}
	.st10{font-size:16px;}
	.st11{fill:#F1F3F4;stroke:#202124;stroke-miterlimit:10;}
	.st12{font-family:'GoogleSans-Regular';}
	.st13{fill-rule:evenodd;clip-rule:evenodd;fill:#FFFFFF;stroke:#202124;stroke-miterlimit:10;}
</style>



<g
   transform="translate(-21.700001,-55.5)"
   id="g18">
	<g
   id="g16">
		<line
   id="line10"
   y2="239"
   x2="577.09998"
   y1="144.8"
   x1="577.09998"
   class="st5" />
		<g
   id="g14">
			<polygon
   id="polygon12"
   points="572.1,237.5 577.1,246.1 582.1,237.5 "
   class="st6" />
		</g>
	</g>
</g>
<g
   transform="translate(-21.700001,-55.5)"
   id="g28">
	<g
   id="g26">
		<path
   id="path20"
   d="m 718.5,122.4 c 0,0 -90.9,0.4 -94.4,116.6"
   class="st5" />
		<g
   id="g24">
			<polygon
   id="polygon22"
   points="619.2,237.4 624,246.1 629.2,237.6 "
   class="st6" />
		</g>
	</g>
</g>
<rect
   id="rect30"
   height="48.599998"
   width="146.39999"
   class="st7"
   y="39.900002"
   x="95.300003" />
<rect
   id="rect32"
   height="30.9"
   width="63.200001"
   class="st8"
   y="48.800003"
   x="137" />
<text
   y="60.218399"
   x="148.5117"
   id="text34"
   class="st2 st9 st10">Email </text>
<text
   y="79.418404"
   x="140.61169"
   id="text36"
   class="st2 st9 st10">service</text>
<rect
   id="rect38"
   height="48.599998"
   width="146.39999"
   class="st7"
   y="344.5"
   x="95.300003" />
<rect
   id="rect40"
   height="30.9"
   width="74.800003"
   class="st8"
   y="353.29999"
   x="131.2" />
<text
   y="364.77551"
   x="135.8403"
   id="text42"
   class="st2 st9 st10">Shipping </text>
<text
   y="383.97549"
   x="140.6403"
   id="text44"
   class="st2 st9 st10">service</text>
<rect
   id="rect46"
   height="48.599998"
   width="146.39999"
   class="st7"
   y="344.5"
   x="286.69998" />
<rect
   id="rect48"
   height="30.9"
   width="74.800003"
   class="st8"
   y="353.29999"
   x="322.59998" />
<text
   y="364.77551"
   x="324.70789"
   id="text50"
   class="st2 st9 st10">Currency </text>
<text
   y="383.97549"
   x="332.0079"
   id="text52"
   class="st2 st9 st10">service</text>
<rect
   id="rect54"
   height="48.599998"
   width="146.39999"
   class="st7"
   y="344.5"
   x="482.89999" />
<rect
   id="rect56"
   height="30.9"
   width="131.3"
   class="st8"
   y="353.29999"
   x="490.5" />
<text
   y="364.77551"
   x="494.71078"
   id="text58"
   class="st2 st9 st10">Product catalog </text>
<text
   y="383.97549"
   x="528.21082"
   id="text60"
   class="st2 st9 st10">service</text>
<rect
   id="rect62"
   height="48.599998"
   width="146.39999"
   class="st7"
   y="344.5"
   x="671.29999" />
<rect
   id="rect64"
   height="30.9"
   width="134.39999"
   class="st8"
   y="353.29999"
   x="677.39996" />
<text
   y="364.77551"
   x="678.14447"
   id="text66"
   class="st2 st9 st10">Recommendation </text>
<text
   y="383.97549"
   x="716.64447"
   id="text68"
   class="st2 st9 st10">service</text>
<rect
   id="rect70"
   height="48.599998"
   width="146.39999"
   class="st7"
   y="192.2"
   x="24.5" />
<rect
   id="rect72"
   height="30.9"
   width="89"
   class="st8"
   y="201"
   x="53.299999" />
<text
   y="212.4969"
   x="64.704697"
   id="text74"
   class="st2 st9 st10">Payment </text>
<text
   y="231.6969"
   x="69.804703"
   id="text76"
   class="st2 st9 st10">service</text>
<rect
   id="rect78"
   height="48.599998"
   width="146.39999"
   class="st7"
   y="192.2"
   x="217.5" />
<rect
   id="rect80"
   height="30.9"
   width="89"
   class="st8"
   y="201"
   x="246.3" />
<text
   y="212.4969"
   x="254.0732"
   id="text82"
   class="st2 st9 st10">Checkout </text>
<text
   y="231.6969"
   x="262.77319"
   id="text84"
   class="st2 st9 st10">service</text>
<rect
   id="rect86"
   height="48.599998"
   width="146.39999"
   class="st7"
   y="192.2"
   x="863.29999" />
<rect
   id="rect88"
   height="30.9"
   width="89"
   class="st8"
   y="201"
   x="892.09998" />
<text
   y="212.4969"
   x="919.82367"
   id="text90"
   class="st2 st9 st10">Cart </text>
<text
   y="231.6969"
   x="908.62378"
   id="text92"
   class="st2 st9 st10">service</text>
<rect
   id="rect94"
   height="48.599998"
   width="146.39999"
   class="st7"
   y="192.2"
   x="482.19998" />
<rect
   id="rect96"
   height="11.7"
   width="89"
   class="st8"
   y="209.79999"
   x="511.59998" />
<text
   y="221.2892"
   x="521.58838"
   id="text98"
   class="st2 st9 st10">Frontend</text>
<rect
   id="rect100"
   height="30.700001"
   width="159.39999"
   class="st11"
   y="121.8"
   x="502.70001" />
<rect
   id="rect102"
   height="11.7"
   width="97.900002"
   class="st8"
   y="131.5"
   x="502.70001" />
<text
   y="142.96021"
   x="532.10303"
   id="text104"
   class="st2 st9 st10">HTTP</text>
<rect
   id="rect106"
   height="11.7"
   width="49.299999"
   class="st8"
   y="131.5"
   x="586" />
<text
   y="142.96021"
   x="591.15747"
   id="text108"
   class="st2 st9 st10">HTTP</text>
<rect
   id="rect110"
   height="48.599998"
   width="146.39999"
   class="st7"
   y="39.900002"
   x="288.69998" />
<rect
   id="rect112"
   height="30.9"
   width="63.200001"
   class="st8"
   y="48.800003"
   x="330.39999" />
<text
   y="60.218399"
   x="351.5134"
   id="text114"
   class="st2 st9 st10">Ad </text>
<text
   y="79.418404"
   x="334.1134"
   id="text116"
   class="st2 st9 st10">service</text>
<path
   id="path118"
   d="m 818.9,88.5 h -97.8 c -13.4,0 -24.3,-10.9 -24.3,-24.3 v 0 c 0,-13.4 10.9,-24.3 24.3,-24.3 h 97.8 c 13.4,0 24.3,10.9 24.3,24.3 v 0 c 0,13.4 -10.9,24.3 -24.3,24.3 z"
   class="st7" />
<rect
   id="rect120"
   height="30.9"
   width="83.400002"
   class="st8"
   y="48.800003"
   x="728.39996" />
<text
   y="60.218399"
   x="751.68512"
   id="text122"
   class="st2 st9 st10">Load</text>
<text
   y="79.418404"
   x="730.88507"
   id="text124"
   class="st2 st9 st10">generator</text>
<g
   transform="translate(-21.700001,-55.5)"
   id="g130">
	<path
   id="path126"
   d="m 910.2,348.9 v 70.2 c 0,7.1 21.5,12.9 48,12.9 26.5,0 48,-5.8 48,-12.9 v -70.2 z"
   class="st7" />
	<ellipse
   id="ellipse128"
   ry="12.9"
   rx="48"
   cy="348.89999"
   cx="958.20001"
   class="st7" />
</g>
<rect
   id="rect132"
   height="32"
   width="63.299999"
   class="st8"
   y="326.60001"
   x="904.89996" />
<text
   y="338.01669"
   x="912.37378"
   id="text134"
   class="st2 st9 st10">Cache</text>
<text
   y="357.21671"
   x="913.47382"
   id="text136"
   class="st2 st12 st10">(Redis)</text>
<path
   id="path138"
   d="m 552.7,24.5 c -10.5,0 -21.1,5.3 -26.9,16.5 -13.7,0.7 -23.8,12.4 -23.1,25.7 0.6,12.9 11.7,23.1 24.5,23.1 0.4,0 0.8,0 1.2,0 h 53 c 0.2,0 0.4,0 0.6,0 10.8,0 19.9,-8.7 20.2,-19.5 0.3,-11.4 -8.5,-20.8 -19.5,-21.1 -3,-16 -16.4,-24.7 -30,-24.7 z"
   class="st13" />
<rect
   id="rect140"
   height="11.7"
   width="63.200001"
   class="st8"
   y="61"
   x="520.89996" />
<text
   y="72.489403"
   x="522.27802"
   id="text142"
   class="st2 st9 st10">Internet</text>
<g
   transform="translate(-21.700001,-55.5)"
   id="g152">
	<g
   id="g150">
		<line
   id="line144"
   y2="424.29999"
   x2="658.90002"
   y1="424.29999"
   x1="692"
   class="st5" />
		<g
   id="g148">
			<polygon
   id="polygon146"
   points="660.3,419.3 651.7,424.3 660.3,429.3 "
   class="st6" />
		</g>
	</g>
</g>
<g
   transform="translate(-21.700001,-55.5)"
   id="g162">
	<g
   id="g160">
		<line
   id="line154"
   y2="271.20001"
   x2="231.2"
   y1="271.20001"
   x1="193.10001"
   class="st5" />
		<g
   id="g158">
			<polygon
   id="polygon156"
   points="229.7,276.2 238.3,271.2 229.7,266.2 "
   class="st6" />
		</g>
	</g>
</g>
<g
   transform="translate(-21.700001,-55.5)"
   id="g172">
	<g
   id="g170">
		<line
   id="line164"
   y2="271.20001"
   x2="392.70001"
   y1="271.20001"
   x1="503.89999"
   class="st5" />
		<g
   id="g168">
			<polygon
   id="polygon166"
   points="394.2,266.2 385.5,271.2 394.2,276.2 "
   class="st6" />
		</g>
	</g>
</g>
<g
   transform="translate(-21.700001,-55.5)"
   id="g182">
	<g
   id="g180">
		<line
   id="line174"
   y2="272"
   x2="877.79999"
   y1="272"
   x1="650.09998"
   class="st5" />
		<g
   id="g178">
			<polygon
   id="polygon176"
   points="876.4,277 885,272 876.4,267 "
   class="st6" />
		</g>
	</g>
</g>
<g
   transform="translate(-21.700001,-55.5)"
   id="g192">
	<g
   id="g190">
		<line
   id="line184"
   y2="392.79999"
   x2="605.79999"
   y1="296.29999"
   x1="605.79999"
   class="st5" />
		<g
   id="g188">
			<polygon
   id="polygon186"
   points="600.8,391.4 605.8,400 610.8,391.4 "
   class="st6" />
		</g>
	</g>
</g>
<g
   transform="translate(-21.700001,-55.5)"
   id="g202">
	<g
   id="g200">
		<line
   id="line194"
   y2="392.79999"
   x2="332.29999"
   y1="296.29999"
   x1="332.29999"
   class="st5" />
		<g
   id="g198">
			<polygon
   id="polygon196"
   points="327.3,391.4 332.3,400 337.3,391.4 "
   class="st6" />
		</g>
	</g>
</g>
<g
   transform="translate(-21.700001,-55.5)"
   id="g212">
	<g
   id="g210">
		<line
   id="line204"
   y2="329.10001"
   x2="958.20001"
   y1="296.29999"
   x1="958.20001"
   class="st5" />
		<g
   id="g208">
			<polygon
   id="polygon206"
   points="953.2,327.7 958.2,336.3 963.2,327.7 "
   class="st6" />
		</g>
	</g>
</g>
<g
   transform="translate(-21.700001,-55.5)"
   id="g222">
	<g
   id="g220">
		<path
   id="path214"
   d="m 238.1,271.2 c 0,0 -47.2,-25 -50.4,-120"
   class="st5" />
		<g
   id="g218">
			<polygon
   id="polygon216"
   points="192.8,152.5 187.6,144 182.8,152.8 "
   class="st6" />
		</g>
	</g>
</g>
<g
   transform="translate(-21.700001,-55.5)"
   id="g232">
	<g
   id="g230">
		<path
   id="path224"
   d="m 238.1,271.2 c 0,0 -47.2,25 -50.4,120"
   class="st5" />
		<g
   id="g228">
			<polygon
   id="polygon226"
   points="182.8,389.6 187.6,398.4 192.8,389.9 "
   class="st6" />
		</g>
	</g>
</g>
<g
   transform="translate(-21.700001,-55.5)"
   id="g242">
	<g
   id="g240">
		<path
   id="path234"
   d="m 650.2,272.3 c 0,0 118,0.5 122.4,120"
   class="st5" />
		<g
   id="g238">
			<polygon
   id="polygon236"
   points="767.5,391 772.7,399.5 777.5,390.7 "
   class="st6" />
		</g>
	</g>
</g>
<g
   transform="translate(-21.700001,-55.5)"
   id="g252">
	<g
   id="g250">
		<path
   id="path244"
   d="m 504.2,271.2 c 0,0 -118,0.5 -122.4,121.6"
   class="st5" />
		<g
   id="g248">
			<polygon
   id="polygon246"
   points="376.9,391.2 381.6,400 386.9,391.5 "
   class="st6" />
		</g>
	</g>
</g>
<g
   transform="translate(-21.700001,-55.5)"
   id="g262">
	<g
   id="g260">
		<path
   id="path254"
   d="m 313.9,247.7 c 0,0 18.4,-29.7 308.3,-29.7 257,0 318.9,14.5 332.9,23.2"
   class="st5" />
		<g
   id="g258">
			<polygon
   id="polygon256"
   points="949.6,242.9 958.3,247.7 958.1,237.7 "
   class="st6" />
		</g>
	</g>
</g>
<g
   transform="translate(-21.700001,-55.5)"
   id="g272">
	<g
   id="g270">
		<path
   id="path264"
   d="m 270.5,421.1 c 13.9,-7.6 49.8,-30.4 102.4,-86.3 68.6,-72.9 131.3,-63.6 131.3,-63.6"
   class="st5" />
		<g
   id="g268">
			<polygon
   id="polygon266"
   points="274,424.8 264.1,424.3 269.5,415.9 "
   class="st6" />
		</g>
	</g>
</g>
<g
   transform="translate(-21.700001,-55.5)"
   id="g282">
	<g
   id="g280">
		<path
   id="path274"
   d="m 464,122.3 c 6.2,6.9 14.8,26.9 14.8,85.1 2.2,55.7 25.4,63 25.4,63"
   class="st5" />
		<g
   id="g278">
			<polygon
   id="polygon276"
   points="462.3,127.6 457.7,118.7 467.7,119.2 "
   class="st6" />
		</g>
	</g>
</g>
<g
   transform="translate(-21.700001,-55.5)"
   id="g292">
	<g
   id="g290">
		<path
   id="path284"
   d="m 357,296.3 c 0,0 -2.4,51.9 122.9,51.9 67.4,0.6 86.4,30.9 91.6,44.9"
   class="st5" />
		<g
   id="g288">
			<polygon
   id="polygon286"
   points="566.2,393.1 573.4,400 575.8,390.3 "
   class="st6" />
		</g>
	</g>
</g>
</svg>
